<?xml version="1.0" encoding="UTF-8"?>
<svg xmlns="http://www.w3.org/2000/svg" viewBox="0 0 1200 630" width="1200" height="630" font-family="Inter, system-ui, -apple-system, sans-serif">
  <defs>
    <linearGradient id="bg" x1="0" y1="0" x2="1" y2="1">
      <stop offset="0" stop-color="#0A0A0B"/>
      <stop offset="1" stop-color="#18181B"/>
    </linearGradient>
    <linearGradient id="amber" x1="0" y1="0" x2="1" y2="1">
      <stop offset="0" stop-color="#FBBF24"/>
      <stop offset="1" stop-color="#F59E0B"/>
    </linearGradient>
    <radialGradient id="amberGlow" cx="0.5" cy="0.5" r="0.5">
      <stop offset="0" stop-color="#FBBF24" stop-opacity="0.15"/>
      <stop offset="1" stop-color="#FBBF24" stop-opacity="0"/>
    </radialGradient>
    <pattern id="grid" x="0" y="0" width="48" height="48" patternUnits="userSpaceOnUse">
      <path d="M48 0H0V48" fill="none" stroke="#27272A" stroke-width="0.6"/>
    </pattern>
  </defs>

  <rect width="1200" height="630" fill="url(#bg)"/>
  <rect width="1200" height="630" fill="url(#grid)" opacity="0.4"/>
  <ellipse cx="950" cy="310" rx="420" ry="290" fill="url(#amberGlow)"/>

  <!-- Top label -->
  <circle cx="80" cy="70" r="4" fill="#FBBF24"/>
  <text x="102" y="75" font-size="14" font-weight="500" letter-spacing="2" fill="#A1A1AA">FILAMENT PLUGIN</text>

  <!-- Title -->
  <text x="80" y="220" font-size="62" font-weight="800" letter-spacing="-2" fill="#FAFAFA">Filament Flux</text>
  <text x="80" y="288" font-size="62" font-weight="800" letter-spacing="-2" fill="url(#amber)">Pro</text>

  <!-- Tagline -->
  <text x="80" y="344" font-size="22" font-weight="600" fill="#FBBF24">Flux Pro components as Filament v5 natives</text>

  <!-- Description -->
  <text x="80" y="392" font-size="18" font-weight="400" fill="#A1A1AA">Date pickers, rich editor, charts, kanban and a global</text>
  <text x="80" y="416" font-size="18" font-weight="400" fill="#A1A1AA">command palette — wired into Forms, Widgets, Schemas and Pages.</text>

  <!-- Footer pills -->
  <g font-size="14" font-weight="500">
    <rect x="80" y="545" width="92" height="30" rx="15" fill="#18181B" stroke="#27272A"/>
    <text x="126" y="565" text-anchor="middle" fill="#A1A1AA">PHP 8.2+</text>

    <rect x="180" y="545" width="118" height="30" rx="15" fill="#18181B" stroke="#27272A"/>
    <text x="239" y="565" text-anchor="middle" fill="#A1A1AA">Laravel 12 / 13</text>

    <rect x="306" y="545" width="100" height="30" rx="15" fill="#18181B" stroke="#27272A"/>
    <text x="356" y="565" text-anchor="middle" fill="#A1A1AA">Filament v5</text>

    <rect x="414" y="545" width="106" height="30" rx="15" fill="#18181B" stroke="#FBBF24"/>
    <text x="467" y="565" text-anchor="middle" fill="#FBBF24">Flux Pro 2.x</text>

    <rect x="528" y="545" width="58" height="30" rx="15" fill="#18181B" stroke="#27272A"/>
    <text x="557" y="565" text-anchor="middle" fill="#A1A1AA">MIT</text>
  </g>

  <text x="1120" y="595" font-size="13" font-weight="500" fill="#52525B" text-anchor="end">@jeffersongoncalves</text>

  <!-- Right-side: kanban-board mock -->
  <g transform="translate(700,140)">
    <!-- Column 1: To do -->
    <rect x="0" y="0" width="130" height="320" rx="10" fill="#0F0F11" stroke="#27272A"/>
    <circle cx="16" cy="22" r="4" fill="#71717A"/>
    <text x="28" y="27" font-size="12" font-weight="600" fill="#A1A1AA">TO DO</text>
    <text x="118" y="27" font-size="12" font-weight="600" fill="#52525B" text-anchor="end">3</text>

    <rect x="10" y="42" width="110" height="64" rx="8" fill="#18181B" stroke="#27272A"/>
    <rect x="20" y="54" width="78" height="6" rx="3" fill="#3F3F46"/>
    <rect x="20" y="68" width="58" height="6" rx="3" fill="#27272A"/>
    <rect x="20" y="86" width="34" height="14" rx="7" fill="#27272A"/>

    <rect x="10" y="116" width="110" height="64" rx="8" fill="#18181B" stroke="#27272A"/>
    <rect x="20" y="128" width="86" height="6" rx="3" fill="#3F3F46"/>
    <rect x="20" y="142" width="46" height="6" rx="3" fill="#27272A"/>
    <rect x="20" y="160" width="34" height="14" rx="7" fill="#27272A"/>

    <rect x="10" y="190" width="110" height="64" rx="8" fill="#18181B" stroke="#27272A"/>
    <rect x="20" y="202" width="68" height="6" rx="3" fill="#3F3F46"/>
    <rect x="20" y="216" width="50" height="6" rx="3" fill="#27272A"/>
    <rect x="20" y="234" width="34" height="14" rx="7" fill="#27272A"/>

    <!-- Column 2: In progress (highlighted, amber border) -->
    <rect x="150" y="0" width="130" height="320" rx="10" fill="#1A1410" stroke="#FBBF24" stroke-opacity="0.7"/>
    <circle cx="166" cy="22" r="4" fill="#FBBF24"/>
    <text x="178" y="27" font-size="12" font-weight="600" fill="#FBBF24">DOING</text>
    <text x="268" y="27" font-size="12" font-weight="600" fill="#FBBF24" text-anchor="end">2</text>

    <rect x="160" y="42" width="110" height="64" rx="8" fill="#18181B" stroke="#FBBF24" stroke-opacity="0.6"/>
    <rect x="170" y="54" width="78" height="6" rx="3" fill="#FBBF24" fill-opacity="0.7"/>
    <rect x="170" y="68" width="62" height="6" rx="3" fill="#3F3F46"/>
    <rect x="170" y="86" width="42" height="14" rx="7" fill="#FBBF24" fill-opacity="0.15"/>
    <text x="191" y="96" font-size="9" font-weight="600" fill="#FBBF24" text-anchor="middle">FLUX</text>

    <rect x="160" y="116" width="110" height="64" rx="8" fill="#18181B" stroke="#27272A"/>
    <rect x="170" y="128" width="80" height="6" rx="3" fill="#3F3F46"/>
    <rect x="170" y="142" width="50" height="6" rx="3" fill="#27272A"/>
    <rect x="170" y="160" width="34" height="14" rx="7" fill="#27272A"/>

    <!-- Column 3: Done -->
    <rect x="300" y="0" width="130" height="320" rx="10" fill="#0F0F11" stroke="#27272A"/>
    <circle cx="316" cy="22" r="4" fill="#10B981"/>
    <text x="328" y="27" font-size="12" font-weight="600" fill="#A1A1AA">DONE</text>
    <text x="418" y="27" font-size="12" font-weight="600" fill="#52525B" text-anchor="end">5</text>

    <rect x="310" y="42" width="110" height="64" rx="8" fill="#18181B" stroke="#27272A"/>
    <rect x="320" y="54" width="74" height="6" rx="3" fill="#3F3F46"/>
    <rect x="320" y="68" width="56" height="6" rx="3" fill="#27272A"/>
    <rect x="320" y="86" width="34" height="14" rx="7" fill="#10B981" fill-opacity="0.15"/>

    <rect x="310" y="116" width="110" height="64" rx="8" fill="#18181B" stroke="#27272A"/>
    <rect x="320" y="128" width="84" height="6" rx="3" fill="#3F3F46"/>
    <rect x="320" y="142" width="44" height="6" rx="3" fill="#27272A"/>
    <rect x="320" y="160" width="34" height="14" rx="7" fill="#10B981" fill-opacity="0.15"/>

    <rect x="310" y="190" width="110" height="64" rx="8" fill="#18181B" stroke="#27272A"/>
    <rect x="320" y="202" width="64" height="6" rx="3" fill="#3F3F46"/>
    <rect x="320" y="216" width="48" height="6" rx="3" fill="#27272A"/>
    <rect x="320" y="234" width="34" height="14" rx="7" fill="#10B981" fill-opacity="0.15"/>

    <!-- Floating command palette overlay -->
    <g transform="translate(40,260)">
      <rect x="0" y="0" width="320" height="60" rx="12" fill="#0A0A0B" stroke="#27272A"/>
      <rect x="12" y="12" width="36" height="20" rx="4" fill="#27272A"/>
      <text x="30" y="26" font-size="10" font-weight="600" fill="#A1A1AA" text-anchor="middle">⌘K</text>
      <text x="60" y="27" font-family="ui-monospace, monospace" font-size="13" fill="#A1A1AA">Search commands</text>
      <line x1="0" y1="40" x2="320" y2="40" stroke="#27272A"/>
      <circle cx="22" cy="50" r="3" fill="#FBBF24"/>
      <text x="32" y="54" font-size="11" font-weight="500" fill="#FAFAFA">Move card</text>
      <text x="296" y="54" font-size="10" fill="#52525B" text-anchor="end">enter</text>
    </g>
  </g>
</svg>
